<svg xmlns="http://www.w3.org/2000/svg" width="15.555" height="12.098" viewBox="0 0 15.555 12.098"><path d="M14.258,2.25H1.3A1.3,1.3,0,0,0,0,3.546v9.506a1.3,1.3,0,0,0,1.3,1.3H14.258a1.3,1.3,0,0,0,1.3-1.3V3.546A1.3,1.3,0,0,0,14.258,2.25ZM4.753,4.842A1.728,1.728,0,1,1,3.025,6.571,1.73,1.73,0,0,1,4.753,4.842Zm3.025,6.395a.566.566,0,0,1-.6.518H2.333a.566.566,0,0,1-.6-.518v-.518A1.7,1.7,0,0,1,3.543,9.163h.135a2.782,2.782,0,0,0,2.15,0h.135a1.7,1.7,0,0,1,1.815,1.555Zm6.049-1.426a.217.217,0,0,1-.216.216H9.722a.217.217,0,0,1-.216-.216V9.379a.217.217,0,0,1,.216-.216H13.61a.217.217,0,0,1,.216.216Zm0-1.728a.217.217,0,0,1-.216.216H9.722a.217.217,0,0,1-.216-.216V7.651a.217.217,0,0,1,.216-.216H13.61a.217.217,0,0,1,.216.216Zm0-1.728a.217.217,0,0,1-.216.216H9.722a.217.217,0,0,1-.216-.216V5.923a.217.217,0,0,1,.216-.216H13.61a.217.217,0,0,1,.216.216Z" transform="translate(0 -2.25)" fill="#09ab9c"/></svg>