<svg xmlns="http://www.w3.org/2000/svg" width="14.484" height="15.288" viewBox="0 0 14.484 15.288"><path d="M14.156,10.242V5.414L11.742,3,9.328,5.414V7.023H4.5V18.288H18.984V10.242ZM7.719,16.679H6.109V15.07H7.719Zm0-3.219H6.109V11.851H7.719Zm0-3.219H6.109V8.633H7.719Zm4.828,6.437H10.937V15.07h1.609Zm0-3.219H10.937V11.851h1.609Zm0-3.219H10.937V8.633h1.609Zm0-3.219H10.937V5.414h1.609Zm4.828,9.656H15.765V15.07h1.609Zm0-3.219H15.765V11.851h1.609Z" transform="translate(-4.5 -3)" fill="#09ab9c"/></svg>