<svg xmlns="http://www.w3.org/2000/svg" width="50.353" height="50.36" viewBox="0 0 50.353 50.36"><g transform="translate(-237.407 -635.322)"><g transform="translate(236.532 634.447)"><path d="M15.841,11.981a4.161,4.161,0,0,0-4.155,4.155V32.962a4.151,4.151,0,0,0,4.155,4.144H29.668a1.192,1.192,0,0,1,.829.349l6.87,6.336c.382.371,1.014.218,1.014-.316V37.956c0-.654.414-.861,1.069-.861h.109c2.29,0,4.591-1.843,4.591-4.144V16.136a4.137,4.137,0,0,0-4.144-4.155H15.841m0-2.5H40.005a6.637,6.637,0,0,1,6.644,6.659v16.81a6.442,6.442,0,0,1-2.3,4.822,7.523,7.523,0,0,1-3.471,1.693v4.008a2.992,2.992,0,0,1-3.028,3.02,3.182,3.182,0,0,1-2.2-.881l-6.514-6.008h-13.3a6.657,6.657,0,0,1-6.655-6.644V16.136A6.662,6.662,0,0,1,15.841,9.481Z" transform="translate(4.578 4.741)" fill="#ef7124"/><path d="M6.93,3.375A3.556,3.556,0,0,0,3.375,6.93V24.945A3.556,3.556,0,0,0,6.93,28.5h6.663V17.606a3.572,3.572,0,0,1,3.566-3.555H36.5V6.93a3.556,3.556,0,0,0-3.555-3.555H6.93m0-2.5H32.949A6.062,6.062,0,0,1,39,6.93v9.621H17.159a1.073,1.073,0,0,0-1.066,1.064V31H6.93A6.062,6.062,0,0,1,.875,24.945V6.93A6.062,6.062,0,0,1,6.93.875Z" transform="translate(0 0)" fill="#ef7124"/></g><path d="M17,1H0A1,1,0,0,1-1,0,1,1,0,0,1,0-1H17a1,1,0,0,1,1,1A1,1,0,0,1,17,1Z" transform="translate(260.5 659.5)" fill="#ef7124"/><path d="M17,1H0A1,1,0,0,1-1,0,1,1,0,0,1,0-1H17a1,1,0,0,1,1,1A1,1,0,0,1,17,1Z" transform="translate(247.083 645.5)" fill="#ef7124"/><path d="M17,1H0A1,1,0,0,1-1,0,1,1,0,0,1,0-1H17a1,1,0,0,1,1,1A1,1,0,0,1,17,1Z" transform="translate(260.5 664.5)" fill="#ef7124"/><path d="M17,1H0A1,1,0,0,1-1,0,1,1,0,0,1,0-1H17a1,1,0,0,1,1,1A1,1,0,0,1,17,1Z" transform="translate(260.5 669.5)" fill="#ef7124"/></g></svg>