<svg xmlns="http://www.w3.org/2000/svg" width="20.218" height="21.341" viewBox="0 0 20.218 21.341"><path d="M17.979,13.109V6.37L14.609,3l-3.37,3.37V8.616H4.5V24.341H24.718V13.109ZM8.993,22.095H6.746V19.848H8.993Zm0-4.493H6.746V15.356H8.993Zm0-4.493H6.746V10.863H8.993Zm6.739,8.986H13.486V19.848h2.246Zm0-4.493H13.486V15.356h2.246Zm0-4.493H13.486V10.863h2.246Zm0-4.493H13.486V6.37h2.246Zm6.739,13.479H20.225V19.848h2.246Zm0-4.493H20.225V15.356h2.246Z" transform="translate(-4.5 -3)" fill="#09ab9c"/></svg>