<svg height="19.498" viewBox="0 0 18.2 19.498" width="18.2" xmlns="http://www.w3.org/2000/svg"><path d="M6.549,20.5a3.9,3.9,0,0,1-2.757-6.656l6.767-6.728a2.557,2.557,0,0,1,3.6-.073,2.418,2.418,0,0,1,.7,1.8,2.647,2.647,0,0,1-.782,1.8L7.66,17.06a.65.65,0,0,1-.919-.919l6.422-6.422a1.348,1.348,0,0,0,.4-.915,1.131,1.131,0,0,0-.323-.844,1.257,1.257,0,0,0-1.765.076L4.71,14.763a2.6,2.6,0,0,0,3.678,3.676l9.367-9.478a3.9,3.9,0,1,0-5.513-5.518L3.109,12.512a.65.65,0,0,1-.916-.923l9.133-9.067a5.2,5.2,0,0,1,7.352,7.356L9.311,19.355A3.894,3.894,0,0,1,6.549,20.5Z" fill="#b3b3b3" transform="translate(-2.001 -1)"/></svg>