<svg height="71.096" viewBox="0 0 68.735 71.096" width="68.735" xmlns="http://www.w3.org/2000/svg"><g transform="translate(0 0)"><path d="M75.847,39.323H59.941c.137-.219.27-.442.392-.672a10.665,10.665,0,0,0-1.2-11.77l-5.445-9.607c-3.049-5.646-8.29-6.162-13.359-6.661-.727-.072-1.478-.145-2.218-.234-5.127-.613-6.127-1.162-9.85-3.2-.44-.241-.916-.5-1.438-.786a3.489,3.489,0,0,0-.12-1.537A3.452,3.452,0,0,0,25.012,2.8L20.527.409a3.494,3.494,0,0,0-4.721,1.445L8.91,14.837a3.495,3.495,0,0,0,1.443,4.721l4.483,2.389A3.494,3.494,0,0,0,19.557,20.5l.067-.126a8.373,8.373,0,0,1,3,2.934,13.274,13.274,0,0,0,6.488,5.663,21.783,21.783,0,0,1,2.139,1.135l9.109,5.68.2.125a10.655,10.655,0,0,0,1.388,3.408H27.517a1.389,1.389,0,0,0-1.389,1.389V66.72A4.38,4.38,0,0,0,30.5,71.1H72.862a4.38,4.38,0,0,0,4.373-4.376V40.711a1.389,1.389,0,0,0-1.389-1.389ZM57.88,37.348a7.841,7.841,0,0,1-1.489,1.974H45.5a7.826,7.826,0,0,1-1.736-2.479,2.918,2.918,0,0,0,.336-.068,3.273,3.273,0,0,0,2.028-1.758c.936-1.762.561-4.622-.736-6.92a7.854,7.854,0,0,1,12.484,9.25ZM43.677,25.9l-4.6-4.772-.037-.046a4.051,4.051,0,0,1,.782-.2c3.644-.609,4.691.416,6.388,3.245A10.582,10.582,0,0,0,43.677,25.9ZM17.1,19.2a.724.724,0,0,1-.965.3l-4.483-2.389h0a.718.718,0,0,1-.294-.964l6.9-12.986a.708.708,0,0,1,.421-.345.745.745,0,0,1,.214-.032.694.694,0,0,1,.328.082l4.488,2.392a.7.7,0,0,1,.341.416.712.712,0,0,1-.05.546ZM41.827,33.432l-9.107-5.679a24.3,24.3,0,0,0-2.4-1.279,10.545,10.545,0,0,1-5.332-4.62,11.33,11.33,0,0,0-4.057-3.937l4.77-8.98c.44.239.849.463,1.229.672,3.781,2.074,5.2,2.851,10.857,3.527.768.092,1.534.167,2.275.24,4.943.486,8.847.87,11.193,5.227l.015.026,2.744,4.841a10.6,10.6,0,0,0-5.11-.256c-2.026-3.443-3.9-6.015-9.534-5.072-1.689.284-2.737.95-3.113,1.98a2.76,2.76,0,0,0,.735,2.83c.019.022.038.043.058.064l5.042,5.236c1.6,1.657,2.106,4.49,1.59,5.461-.151.285-.268.371-.3.379-.058.015-.4.056-1.556-.662ZM72.862,68.319H30.5a1.6,1.6,0,0,1-1.6-1.6V50.33h7.511a1.389,1.389,0,1,0,0-2.777H28.905V42.1H74.458v5.453H48.874a1.389,1.389,0,0,0,0,2.777H74.458V66.72a1.6,1.6,0,0,1-1.6,1.6Z" fill="#ef7124" transform="translate(-8.501 0)"/><path d="M241.909,391.719H215.4a1.389,1.389,0,0,0-1.389,1.389v7.081a1.389,1.389,0,0,0,1.389,1.389h26.513a1.389,1.389,0,0,0,1.389-1.389v-7.081A1.389,1.389,0,0,0,241.909,391.719ZM240.52,398.8H216.784v-4.3H240.52Z" fill="#ef7124" transform="translate(-185.471 -337.325)"/><path d="M245.783,345.231h.008a1.392,1.392,0,1,0-.008,0Z" fill="#ef7124" transform="translate(-211.639 -294.901)"/></g></svg>