<svg height="69.582" viewBox="0 0 63.327 69.582" width="63.327" xmlns="http://www.w3.org/2000/svg"><g transform="translate(0)"><g transform="translate(0)"><path d="M85.166,67.237H83.211V5.864a1.173,1.173,0,0,0-1.173-1.173H60.148a1.173,1.173,0,0,0-1.173,1.173v5.082H56.629V5.864a1.173,1.173,0,0,0-1.173-1.173H50.375V1.173a1.173,1.173,0,0,0-2.345,0V4.691H42.948a1.173,1.173,0,0,0-1.173,1.173v5.082H38.257a1.173,1.173,0,0,0-1.173,1.173v9.773H27.311a1.173,1.173,0,0,0-1.173,1.173V67.236H24.184a1.173,1.173,0,0,0,0,2.346H85.166a1.173,1.173,0,1,0,0-2.345ZM44.12,7.036H54.284v3.909H44.12Zm-3.909,60.2h-.782V65.282a1.173,1.173,0,1,0-2.345,0v1.955H36.3V63.327h3.909Zm7.818-30.1v30.1H42.556V62.155a1.173,1.173,0,0,0-1.173-1.173H35.129a1.173,1.173,0,0,0-1.173,1.173v5.082H28.484v-43H48.029v12.9ZM49.2,21.891H39.429v-8.6H58.975V35.964h-8.6V32.055h3.518a1.173,1.173,0,1,0,0-2.345H50.375V25.8h3.518a1.173,1.173,0,1,0,0-2.345H50.375v-.391A1.173,1.173,0,0,0,49.2,21.891ZM69.92,67.237H50.375V38.309H69.92Zm10.945,0h-8.6V35.573a1.173,1.173,0,0,0-2.345,0v.391H67.575v-.391a1.173,1.173,0,0,0-2.345,0v.391H61.32V7.036H80.866v60.2Z" fill="#ef7124" transform="translate(-23.011)"/><path d="M254.3,323.385a1.173,1.173,0,0,0,1.173-1.173V300.322a1.173,1.173,0,1,0-2.345,0v21.891A1.173,1.173,0,0,0,254.3,323.385Z" fill="#ef7124" transform="translate(-221.851 -258.494)"/><path d="M288.814,323.385a1.173,1.173,0,0,0,1.173-1.173V300.322a1.173,1.173,0,0,0-2.345,0v21.891A1.173,1.173,0,0,0,288.814,323.385Z" fill="#ef7124" transform="translate(-251.677 -258.494)"/><path d="M323.33,323.385a1.173,1.173,0,0,0,1.173-1.173V300.322a1.173,1.173,0,0,0-2.345,0v21.891A1.173,1.173,0,0,0,323.33,323.385Z" fill="#ef7124" transform="translate(-281.502 -258.494)"/><path d="M334.836,84.449a1.173,1.173,0,0,0,1.173-1.173V81.713a1.173,1.173,0,1,0-2.345,0v1.564A1.173,1.173,0,0,0,334.836,84.449Z" fill="#ef7124" transform="translate(-291.445 -69.594)"/><path d="M369.353,84.449a1.173,1.173,0,0,0,1.173-1.173V81.713a1.173,1.173,0,1,0-2.345,0v1.564A1.173,1.173,0,0,0,369.353,84.449Z" fill="#ef7124" transform="translate(-321.271 -69.594)"/><path d="M403.87,84.449a1.173,1.173,0,0,0,1.173-1.173V81.713a1.173,1.173,0,1,0-2.345,0v1.564A1.173,1.173,0,0,0,403.87,84.449Z" fill="#ef7124" transform="translate(-351.097 -69.594)"/><path d="M334.836,141.976a1.173,1.173,0,0,0,1.173-1.173V139.24a1.173,1.173,0,1,0-2.345,0V140.8A1.173,1.173,0,0,0,334.836,141.976Z" fill="#ef7124" transform="translate(-291.445 -119.303)"/><path d="M369.353,141.976a1.173,1.173,0,0,0,1.173-1.173V139.24a1.173,1.173,0,1,0-2.345,0V140.8A1.173,1.173,0,0,0,369.353,141.976Z" fill="#ef7124" transform="translate(-321.271 -119.303)"/><path d="M403.87,141.976a1.173,1.173,0,0,0,1.173-1.173V139.24a1.173,1.173,0,0,0-2.345,0V140.8A1.173,1.173,0,0,0,403.87,141.976Z" fill="#ef7124" transform="translate(-351.097 -119.303)"/><path d="M334.836,199.505a1.173,1.173,0,0,0,1.173-1.173v-1.564a1.173,1.173,0,1,0-2.345,0v1.564A1.173,1.173,0,0,0,334.836,199.505Z" fill="#ef7124" transform="translate(-291.445 -169.014)"/><path d="M369.353,199.505a1.173,1.173,0,0,0,1.173-1.173v-1.564a1.173,1.173,0,1,0-2.345,0v1.564A1.173,1.173,0,0,0,369.353,199.505Z" fill="#ef7124" transform="translate(-321.271 -169.014)"/><path d="M403.87,199.505a1.173,1.173,0,0,0,1.173-1.173v-1.564a1.173,1.173,0,0,0-2.345,0v1.564A1.173,1.173,0,0,0,403.87,199.505Z" fill="#ef7124" transform="translate(-351.097 -169.014)"/><path d="M93.218,222.516a1.173,1.173,0,0,0,1.173-1.173V219.78a1.173,1.173,0,0,0-2.345,0v1.564A1.173,1.173,0,0,0,93.218,222.516Z" fill="#ef7124" transform="translate(-82.663 -188.898)"/><path d="M127.735,222.516a1.173,1.173,0,0,0,1.173-1.173V219.78a1.173,1.173,0,1,0-2.345,0v1.564A1.173,1.173,0,0,0,127.735,222.516Z" fill="#ef7124" transform="translate(-112.489 -188.898)"/><path d="M162.252,222.516a1.173,1.173,0,0,0,1.173-1.173V219.78a1.173,1.173,0,0,0-2.345,0v1.564A1.173,1.173,0,0,0,162.252,222.516Z" fill="#ef7124" transform="translate(-142.315 -188.898)"/><path d="M93.218,280.044a1.173,1.173,0,0,0,1.173-1.173v-1.564a1.173,1.173,0,0,0-2.345,0v1.564A1.173,1.173,0,0,0,93.218,280.044Z" fill="#ef7124" transform="translate(-82.663 -238.608)"/><path d="M127.735,280.044a1.173,1.173,0,0,0,1.173-1.173v-1.564a1.173,1.173,0,0,0-2.345,0v1.564A1.173,1.173,0,0,0,127.735,280.044Z" fill="#ef7124" transform="translate(-112.489 -238.608)"/><path d="M162.252,280.044a1.173,1.173,0,0,0,1.173-1.173v-1.564a1.173,1.173,0,0,0-2.345,0v1.564A1.173,1.173,0,0,0,162.252,280.044Z" fill="#ef7124" transform="translate(-142.315 -238.608)"/><path d="M93.218,337.572A1.173,1.173,0,0,0,94.39,336.4v-1.564a1.173,1.173,0,0,0-2.345,0V336.4A1.173,1.173,0,0,0,93.218,337.572Z" fill="#ef7124" transform="translate(-82.663 -288.317)"/><path d="M127.735,337.572a1.173,1.173,0,0,0,1.173-1.173v-1.564a1.173,1.173,0,0,0-2.345,0V336.4A1.173,1.173,0,0,0,127.735,337.572Z" fill="#ef7124" transform="translate(-112.489 -288.317)"/><path d="M162.252,337.572a1.173,1.173,0,0,0,1.173-1.173v-1.564a1.173,1.173,0,0,0-2.345,0V336.4A1.173,1.173,0,0,0,162.252,337.572Z" fill="#ef7124" transform="translate(-142.315 -288.317)"/><path d="M93.218,395.1a1.173,1.173,0,0,0,1.173-1.173v-1.564a1.173,1.173,0,0,0-2.345,0v1.564A1.173,1.173,0,0,0,93.218,395.1Z" fill="#ef7124" transform="translate(-82.663 -338.027)"/><path d="M127.735,395.1a1.173,1.173,0,0,0,1.173-1.173v-1.564a1.173,1.173,0,1,0-2.345,0v1.564A1.173,1.173,0,0,0,127.735,395.1Z" fill="#ef7124" transform="translate(-112.489 -338.027)"/><path d="M162.252,395.1a1.173,1.173,0,0,0,1.173-1.173v-1.564a1.173,1.173,0,0,0-2.345,0v1.564A1.173,1.173,0,0,0,162.252,395.1Z" fill="#ef7124" transform="translate(-142.315 -338.027)"/><path d="M403.87,257.033a1.173,1.173,0,0,0,1.173-1.173V254.3a1.173,1.173,0,0,0-2.345,0v1.564A1.173,1.173,0,0,0,403.87,257.033Z" fill="#ef7124" transform="translate(-351.097 -218.724)"/><path d="M403.87,314.561a1.173,1.173,0,0,0,1.173-1.173v-1.564a1.173,1.173,0,0,0-2.345,0v1.564A1.173,1.173,0,0,0,403.87,314.561Z" fill="#ef7124" transform="translate(-351.097 -268.434)"/><path d="M403.87,372.089a1.173,1.173,0,0,0,1.173-1.173v-1.564a1.173,1.173,0,1,0-2.345,0v1.564A1.173,1.173,0,0,0,403.87,372.089Z" fill="#ef7124" transform="translate(-351.097 -318.143)"/><path d="M403.87,429.617a1.173,1.173,0,0,0,1.173-1.173v-1.564a1.173,1.173,0,1,0-2.345,0v1.564A1.173,1.173,0,0,0,403.87,429.617Z" fill="#ef7124" transform="translate(-351.097 -367.853)"/><path d="M184.311,127.735a1.173,1.173,0,0,0-1.173-1.173h-9.382a1.173,1.173,0,0,0,0,2.345h9.382A1.173,1.173,0,0,0,184.311,127.735Z" fill="#ef7124" transform="translate(-152.257 -109.362)"/></g></g></svg>