<svg height="54.274" viewBox="0 0 72.365 54.274" width="72.365" xmlns="http://www.w3.org/2000/svg"><g transform="translate(0 0)"><g transform="translate(0 0)"><path d="M61.872,82.575A10.832,10.832,0,0,0,54.274,64a10.9,10.9,0,0,0-5.629,1.572,1.206,1.206,0,1,0,1.246,2.066,8.443,8.443,0,0,1,12.825,7.216,8.4,8.4,0,0,1-3.846,7.072,8.487,8.487,0,0,1-6.932,1.043,1.206,1.206,0,1,0-.662,2.319,10.887,10.887,0,0,0,3,.42,10.746,10.746,0,0,0,5.357-1.452A15.62,15.62,0,0,1,69.953,98.976v6.03h-11A22.932,22.932,0,0,0,45.64,86.554a13.267,13.267,0,1,0-18.914,0,23.238,23.238,0,0,0-6.752,4.657A22.791,22.791,0,0,0,13.4,105.007H2.412v-6.03A15.618,15.618,0,0,1,7,87.892a15.848,15.848,0,0,1,5.744-3.628,10.755,10.755,0,0,0,5.346,1.445,10.887,10.887,0,0,0,3-.42,1.206,1.206,0,1,0-.662-2.319,8.484,8.484,0,0,1-6.937-1.046,8.437,8.437,0,0,1,4.6-15.512,8.487,8.487,0,0,1,4.383,1.226,1.206,1.206,0,1,0,1.246-2.066A10.856,10.856,0,0,0,7.237,74.855a10.782,10.782,0,0,0,3.249,7.714A18.372,18.372,0,0,0,5.3,86.185,18.021,18.021,0,0,0,0,98.977v7.237a1.206,1.206,0,0,0,1.206,1.206H13.267v9.649a1.206,1.206,0,0,0,1.206,1.206H57.892a1.206,1.206,0,0,0,1.206-1.206v-9.649H71.159a1.206,1.206,0,0,0,1.206-1.206V98.977A18.025,18.025,0,0,0,61.872,82.575ZM25.328,77.267A10.855,10.855,0,1,1,36.183,88.122,10.867,10.867,0,0,1,25.328,77.267Zm31.358,38.595H15.679v-8.443a20.41,20.41,0,0,1,6-14.5A20.714,20.714,0,0,1,28.835,88.3,13.225,13.225,0,0,0,43.541,88.3a20.511,20.511,0,0,1,13.145,19.121v8.443Z" fill="#ef7124" transform="translate(0 -64)"/></g></g></svg>