<svg height="15" viewBox="0 0 15.75 15" width="15.75" xmlns="http://www.w3.org/2000/svg"><path d="M.422,5.625H15.328a.393.393,0,0,1,.422.352v7.617A1.567,1.567,0,0,1,14.063,15H1.688A1.567,1.567,0,0,1,0,13.594V5.977A.393.393,0,0,1,.422,5.625ZM15.75,4.336V3.281a1.567,1.567,0,0,0-1.687-1.406H12.375V.352A.393.393,0,0,0,11.953,0H10.547a.393.393,0,0,0-.422.352V1.875h-4.5V.352A.393.393,0,0,0,5.2,0H3.8a.393.393,0,0,0-.422.352V1.875H1.688A1.567,1.567,0,0,0,0,3.281V4.336a.393.393,0,0,0,.422.352H15.328A.393.393,0,0,0,15.75,4.336Z" fill="#09ab9c"/></svg>