<svg height="12.441" viewBox="0 0 13.999 12.441" width="13.999" xmlns="http://www.w3.org/2000/svg"><path d="M9.785,2.027l2.192,2.192a.238.238,0,0,1,0,.335L6.669,9.862l-2.255.25a.473.473,0,0,1-.523-.523l.25-2.255L9.449,2.027A.238.238,0,0,1,9.785,2.027Zm3.937-.557L12.536.284a.951.951,0,0,0-1.342,0l-.86.86a.238.238,0,0,0,0,.335l2.192,2.192a.238.238,0,0,0,.335,0l.86-.86a.951.951,0,0,0,0-1.342ZM9.333,8.419v2.474H1.555V3.115H7.14a.3.3,0,0,0,.207-.085l.972-.972a.292.292,0,0,0-.207-.5H1.167A1.167,1.167,0,0,0,0,2.727v8.555a1.167,1.167,0,0,0,1.167,1.167H9.721a1.167,1.167,0,0,0,1.167-1.167V7.446a.292.292,0,0,0-.5-.207l-.972.972A.3.3,0,0,0,9.333,8.419Z" fill="#4d4d4d" transform="translate(0 -0.007)"/></svg>