<svg xmlns="http://www.w3.org/2000/svg" width="16.333" height="13.82" viewBox="0 0 16.333 13.82"><g transform="translate(-3 -5)"><g transform="translate(3 5)"><path d="M18.705,6.256H9.91A1.258,1.258,0,0,0,8.654,5H7.4A1.258,1.258,0,0,0,6.141,6.256H3.628a.628.628,0,0,0,0,1.256H6.141A1.258,1.258,0,0,0,7.4,8.769H8.654A1.258,1.258,0,0,0,9.91,7.513h8.795a.628.628,0,0,0,0-1.256ZM7.4,7.513V6.256H8.654v.626s0,0,0,0,0,0,0,0v.626Z" transform="translate(-3 -5)" fill="gray"/><path d="M18.705,14.256H14.936A1.258,1.258,0,0,0,13.679,13H12.423a1.258,1.258,0,0,0-1.256,1.256H3.628a.628.628,0,0,0,0,1.256h7.538a1.258,1.258,0,0,0,1.256,1.256h1.256a1.258,1.258,0,0,0,1.256-1.256h3.769a.628.628,0,0,0,0-1.256Zm-6.282,1.256V14.256h1.256v.626s0,0,0,0,0,0,0,0v.626Z" transform="translate(-3 -7.974)" fill="gray"/><path d="M18.705,22.256H9.91A1.258,1.258,0,0,0,8.654,21H7.4a1.258,1.258,0,0,0-1.256,1.256H3.628a.628.628,0,0,0,0,1.256H6.141A1.258,1.258,0,0,0,7.4,24.769H8.654A1.258,1.258,0,0,0,9.91,23.513h8.795a.628.628,0,1,0,0-1.256ZM7.4,23.513V22.256H8.654v.626s0,0,0,0,0,0,0,0v.626Z" transform="translate(-3 -10.949)" fill="gray"/></g></g></svg>