<svg height="22.735" viewBox="0 0 22.942 22.735" width="22.942" xmlns="http://www.w3.org/2000/svg"><g transform="translate(0 -8.773)"><path d="M19.252,91.515H3.69A3.7,3.7,0,0,0,0,95.205v10.456a3.7,3.7,0,0,0,3.69,3.69h9.34a.622.622,0,0,1,.608.762,15.636,15.636,0,0,1-1.187,3.313.567.567,0,0,0,.807.734,20.819,20.819,0,0,0,5.09-4.384,1.167,1.167,0,0,1,.9-.425,3.7,3.7,0,0,0,3.69-3.69V95.205a3.7,3.7,0,0,0-3.69-3.69Z" fill="#09ab9c" transform="translate(0 -82.742)"/><path d="M230.605,419.039a.623.623,0,0,0-.608-.762h-2.39a.623.623,0,0,1,.608.762,15.635,15.635,0,0,1-1.187,3.313.567.567,0,0,0,.807.734c.539-.334,1.166-.754,1.829-1.261a15.578,15.578,0,0,0,.941-2.786Z" fill="#0a9588" transform="translate(-214.577 -391.666)"/><path d="M2.39,105.662V95.205a3.7,3.7,0,0,1,3.69-3.69H3.69A3.7,3.7,0,0,0,0,95.205v10.456a3.7,3.7,0,0,0,3.69,3.69H6.08a3.7,3.7,0,0,1-3.69-3.69Z" fill="#0a9588" transform="translate(0 -82.742)"/></g></svg>