<svg height="25.239" viewBox="0 0 21.682 25.239" width="21.682" xmlns="http://www.w3.org/2000/svg"><g opacity="0.83" transform="translate(-38.724 -799.814)"><g transform="translate(34.224 796.814)"><path d="M26.776,31.791a1.5,1.5,0,0,1-1.5-1.5v-2.6A3.7,3.7,0,0,0,21.582,24H11.194A3.694,3.694,0,0,0,7.5,27.694v2.6a1.5,1.5,0,0,1-3,0v-2.6A6.694,6.694,0,0,1,11.194,21H21.582a6.7,6.7,0,0,1,6.694,6.694v2.6A1.5,1.5,0,0,1,26.776,31.791Z" fill="#9a9a9a" transform="translate(0 -2.418)"/><path d="M17.194,16.388a6.694,6.694,0,1,1,6.694-6.694A6.7,6.7,0,0,1,17.194,16.388ZM17.194,6a3.694,3.694,0,1,0,3.694,3.694A3.7,3.7,0,0,0,17.194,6Z" fill="#9a9a9a" transform="translate(-0.806 0)"/></g><path d="M21,1.5H0v-3H21Z" fill="#9a9a9a" transform="translate(40.5 824.5)"/></g></svg>