<svg height="28.239" viewBox="0 0 28.234 28.239" width="28.234" xmlns="http://www.w3.org/2000/svg"><g transform="translate(1.499 1.501)"><path d="M19.814,26.738H15.786A2.242,2.242,0,0,1,13.547,24.5V18.818H11.69V24.5A2.242,2.242,0,0,1,9.45,26.738H5.422A4.224,4.224,0,0,1,1.2,22.519V16.275A3.824,3.824,0,0,1-.39,9.923l.012-.013L9.914-.381a3.823,3.823,0,0,1,5.408,0l10.3,10.3a3.827,3.827,0,0,1-1.586,6.359v6.242A4.224,4.224,0,0,1,19.814,26.738Zm-3.267-3h3.267a1.221,1.221,0,0,0,1.219-1.219V13.443h1.88A.808.808,0,0,0,23.5,13.2a.825.825,0,0,0,0-1.16l-.005-.005L13.2,1.741a.823.823,0,0,0-1.165,0l-10.3,10.3a.824.824,0,0,0,0,1.16.808.808,0,0,0,.545.24l.044,0H4.2v9.077a1.221,1.221,0,0,0,1.219,1.219H8.69V18.559a2.744,2.744,0,0,1,2.741-2.741h2.376a2.744,2.744,0,0,1,2.741,2.741Z" fill="#aaa"/></g></svg>