<svg height="25.239" viewBox="0 0 25.236 25.239" width="25.236" xmlns="http://www.w3.org/2000/svg"><g transform="translate(0 0.001)"><path d="M24.558,10.977l0,0L14.261.68a2.323,2.323,0,0,0-3.286,0L.685,10.97l-.01.011a2.322,2.322,0,0,0,1.546,3.959q.036,0,.072,0H2.7v7.577a2.722,2.722,0,0,0,2.719,2.719H9.45a.739.739,0,0,0,.739-.739v-5.94a1.242,1.242,0,0,1,1.241-1.241h2.376a1.242,1.242,0,0,1,1.241,1.241V24.5a.739.739,0,0,0,.739.739h4.028a2.722,2.722,0,0,0,2.719-2.719V14.943h.38a2.324,2.324,0,0,0,1.644-3.966Zm0,0" fill="#09ab9c"/></g></svg>