<svg height="32.491" viewBox="0 0 32.491 32.491" width="32.491" xmlns="http://www.w3.org/2000/svg"><g transform="translate(4.524 4.524)"><path d="M75.615,74.269l-2.692-2.692a.952.952,0,0,0-1.346,1.346l2.692,2.692a.952.952,0,0,0,1.346-1.346Z" fill="#09ab9c" transform="translate(-71.298 -71.298)"/></g><g transform="translate(0 15.293)"><path d="M4.823,241H.952a.952.952,0,0,0,0,1.9H4.823a.952.952,0,0,0,0-1.9Z" fill="#09ab9c" transform="translate(0 -241)"/></g><g transform="translate(26.716 15.293)"><path d="M425.823,241h-3.871a.952.952,0,0,0,0,1.9h3.871a.952.952,0,0,0,0-1.9Z" fill="#09ab9c" transform="translate(-421 -241)"/></g><g transform="translate(23.371 4.524)"><path d="M372.6,71.577a.952.952,0,0,0-1.346,0l-2.692,2.692a.952.952,0,0,0,1.346,1.346l2.692-2.692A.952.952,0,0,0,372.6,71.577Z" fill="#09ab9c" transform="translate(-368.281 -71.298)"/></g><g transform="translate(15.293)"><path d="M241.952,0A.951.951,0,0,0,241,.952V4.823a.952.952,0,0,0,1.9,0V.952A.951.951,0,0,0,241.952,0Z" fill="#09ab9c" transform="translate(-241)"/></g><g transform="translate(7.683 7.68)"><path d="M134.965,122.869a8.6,8.6,0,0,0-7.387-1.6,8.44,8.44,0,0,0-6.244,6.149,8.612,8.612,0,0,0,2.3,8.281,4.677,4.677,0,0,1,1.238,3.262v.209a.943.943,0,0,0,.952.952h7.615a.943.943,0,0,0,.952-.952v-.209a4.725,4.725,0,0,1,1.314-3.319,8.6,8.6,0,0,0-.742-12.774Zm-5.331,3.865a2.784,2.784,0,0,0-2.755,2.055.952.952,0,1,1-1.848-.457,4.7,4.7,0,0,1,4.6-3.5.952.952,0,1,1,0,1.9Z" fill="#09ab9c" transform="translate(-121.072 -121.024)"/></g><g transform="translate(12.438 28.683)"><path d="M196,452v.952a2.859,2.859,0,0,0,2.856,2.856h1.9a2.859,2.859,0,0,0,2.856-2.856V452Z" fill="#09ab9c" transform="translate(-196 -452)"/></g></svg>