<svg height="31.234" viewBox="0 0 31.234 31.234" width="31.234" xmlns="http://www.w3.org/2000/svg"><g transform="translate(0.5 0.5)"><g transform="translate(7.147 7.146)"><path d="M127.089,121.233a7.882,7.882,0,0,0-5.816,5.73,8,8,0,0,0,2.141,7.712,4.3,4.3,0,0,1,1.152,3.034v.19a2.651,2.651,0,0,0,.886,1.978v1.565a2.66,2.66,0,0,0,2.657,2.657h1.772a2.66,2.66,0,0,0,2.657-2.657v-1.565a2.651,2.651,0,0,0,.886-1.978v-.194a4.444,4.444,0,0,1,1.214-3.092,7.977,7.977,0,0,0-7.549-13.381Zm3.678,20.209a.887.887,0,0,1-.886.886h-1.772a.887.887,0,0,1-.886-.886v-.886h3.543Zm2.617-8.08a6.165,6.165,0,0,0-1.732,4.343v.194a.887.887,0,0,1-.886.886h-3.543a.887.887,0,0,1-.886-.886v-.19a6.014,6.014,0,0,0-1.684-4.3,6.244,6.244,0,0,1-1.662-6.022,6.1,6.1,0,0,1,4.5-4.43,6.206,6.206,0,0,1,5.893,10.4Z" fill="#aaa" transform="translate(-121.024 -121.012)"/><path d="M128.99,120.512h0a8.471,8.471,0,0,1,6,14.455,3.934,3.934,0,0,0-1.068,2.739v.194a3.161,3.161,0,0,1-.886,2.19v1.353a3.161,3.161,0,0,1-3.157,3.157h-1.772a3.161,3.161,0,0,1-3.157-3.157V140.09a3.161,3.161,0,0,1-.886-2.19v-.19a3.792,3.792,0,0,0-1-2.677,8.5,8.5,0,0,1-2.276-8.189,8.387,8.387,0,0,1,6.188-6.1A8.891,8.891,0,0,1,128.99,120.512Zm.891,23.088a2.16,2.16,0,0,0,2.157-2.157v-1.788l.166-.149a2.161,2.161,0,0,0,.719-1.606v-.194a4.953,4.953,0,0,1,1.36-3.445,7.47,7.47,0,0,0-5.294-12.749h0a7.888,7.888,0,0,0-1.788.208,7.378,7.378,0,0,0-5.444,5.363,7.5,7.5,0,0,0,2.006,7.235,4.806,4.806,0,0,1,1.3,3.391v.19a2.161,2.161,0,0,0,.719,1.606l.166.149v1.788a2.16,2.16,0,0,0,2.157,2.157Zm-.894-21.316a6.7,6.7,0,0,1,4.751,11.431,5.662,5.662,0,0,0-1.586,3.99v.194a1.387,1.387,0,0,1-1.386,1.386h-3.543a1.387,1.387,0,0,1-1.386-1.386v-.19a5.513,5.513,0,0,0-1.534-3.942,6.74,6.74,0,0,1-1.8-6.5,6.6,6.6,0,0,1,4.871-4.8A7.1,7.1,0,0,1,128.986,122.284Zm1.78,16a.386.386,0,0,0,.386-.386v-.194a6.668,6.668,0,0,1,1.878-4.7,5.7,5.7,0,0,0-4.043-9.725,6.1,6.1,0,0,0-1.382.161,5.591,5.591,0,0,0-4.127,4.063A5.749,5.749,0,0,0,125,133.053a6.516,6.516,0,0,1,1.834,4.656v.19a.386.386,0,0,0,.386.386Zm-4.043,1.771h4.543v1.386a1.387,1.387,0,0,1-1.386,1.386h-1.772a1.387,1.387,0,0,1-1.386-1.386Zm3.543,1h-2.543v.386a.386.386,0,0,0,.386.386h1.772a.386.386,0,0,0,.386-.386Z" fill="#aaa" transform="translate(-121.024 -121.012)"/></g><g transform="translate(4.21 4.21)"><path d="M75.311,74.059l-2.505-2.505a.886.886,0,0,0-1.253,1.253l2.505,2.505a.886.886,0,0,0,1.253-1.253Z" fill="#aaa" transform="translate(-71.294 -71.295)"/><path d="M74.685,76.071a1.377,1.377,0,0,1-.98-.406L71.2,73.16a1.386,1.386,0,1,1,1.96-1.96l2.505,2.505a1.386,1.386,0,0,1-.98,2.366Zm-2.505-4.277a.386.386,0,0,0-.273.659l2.505,2.505a.386.386,0,1,0,.546-.546l-2.505-2.505A.383.383,0,0,0,72.179,71.795Z" fill="#aaa" transform="translate(-71.294 -71.295)"/></g><g transform="translate(0 14.231)"><path d="M4.488,241H.886a.886.886,0,0,0,0,1.772h3.6a.886.886,0,0,0,0-1.772Z" fill="#aaa" transform="translate(0 -241)"/><path d="M.886,240.5h3.6a1.386,1.386,0,0,1,0,2.772H.886a1.386,1.386,0,0,1,0-2.772Zm3.6,1.772a.386.386,0,0,0,0-.772H.886a.386.386,0,0,0,0,.772Z" fill="#aaa" transform="translate(0 -241)"/></g><g transform="translate(24.86 14.231)"><path d="M425.488,241h-3.6a.886.886,0,1,0,0,1.772h3.6a.886.886,0,0,0,0-1.772Z" fill="#aaa" transform="translate(-421 -241)"/><path d="M421.886,240.5h3.6a1.386,1.386,0,0,1,0,2.772h-3.6a1.386,1.386,0,1,1,0-2.772Zm3.6,1.772a.386.386,0,0,0,0-.772h-3.6a.386.386,0,1,0,0,.772Z" fill="#aaa" transform="translate(-421 -241)"/></g><g transform="translate(21.747 4.21)"><path d="M372.3,71.554a.886.886,0,0,0-1.253,0l-2.505,2.505a.886.886,0,0,0,1.253,1.253l2.505-2.505A.886.886,0,0,0,372.3,71.554Z" fill="#aaa" transform="translate(-368.279 -71.295)"/><path d="M371.671,70.795a1.386,1.386,0,0,1,.98,2.366l-2.505,2.505a1.386,1.386,0,0,1-1.96-1.96l2.505-2.505A1.377,1.377,0,0,1,371.671,70.795Zm-2.505,4.277a.383.383,0,0,0,.273-.113l2.505-2.505a.386.386,0,1,0-.546-.545l-2.505,2.505a.386.386,0,0,0,.273.659Z" fill="#aaa" transform="translate(-368.279 -71.295)"/></g><g transform="translate(14.231)"><path d="M241.886,0A.886.886,0,0,0,241,.886v3.6a.886.886,0,0,0,1.772,0V.886A.886.886,0,0,0,241.886,0Z" fill="#aaa" transform="translate(-241)"/><path d="M241.886-.5A1.387,1.387,0,0,1,243.272.886v3.6a1.386,1.386,0,0,1-2.772,0V.886A1.387,1.387,0,0,1,241.886-.5Zm0,5.374a.386.386,0,0,0,.386-.386V.886a.386.386,0,0,0-.772,0v3.6A.386.386,0,0,0,241.886,4.874Z" fill="#aaa" transform="translate(-241)"/></g><g transform="translate(10.807 10.688)"><path d="M187.328,181a4.84,4.84,0,0,0-1.1.13,4.369,4.369,0,0,0-3.182,3.128.886.886,0,1,0,1.719.426,2.594,2.594,0,0,1,1.866-1.83,3.069,3.069,0,0,1,.7-.083.886.886,0,1,0,0-1.771Z" fill="#aaa" transform="translate(-183.018 -181)"/><path d="M187.328,180.5a1.386,1.386,0,1,1,0,2.771,2.569,2.569,0,0,0-.584.07,2.105,2.105,0,0,0-1.494,1.463,1.386,1.386,0,1,1-2.69-.667,4.88,4.88,0,0,1,3.553-3.495A5.338,5.338,0,0,1,187.328,180.5Zm-3.423,4.357a.385.385,0,0,0,.374-.293,3.112,3.112,0,0,1,2.237-2.2,3.568,3.568,0,0,1,.812-.1.386.386,0,1,0,0-.771,4.339,4.339,0,0,0-.988.116,3.858,3.858,0,0,0-2.81,2.762.386.386,0,0,0,.375.479Z" fill="#aaa" transform="translate(-183.018 -181)"/></g></g></svg>