<svg xmlns="http://www.w3.org/2000/svg" width="16.5" height="22" viewBox="0 0 16.5 22"><path d="M7.816,11A4.146,4.146,0,0,1,7.73,8.989C8.091,8.989,8.057,10.575,7.816,11Zm-.073,2.028a19.827,19.827,0,0,1-1.22,2.694,15.822,15.822,0,0,1,2.7-.941A5.566,5.566,0,0,1,7.743,13.032ZM3.7,18.395c0,.034.567-.232,1.5-1.727A5.939,5.939,0,0,0,3.7,18.395Zm6.957-11.52H16.5V20.969A1.029,1.029,0,0,1,15.469,22H1.031A1.029,1.029,0,0,1,0,20.969V1.031A1.029,1.029,0,0,1,1.031,0H9.625V5.844A1.034,1.034,0,0,0,10.656,6.875Zm-.344,7.382a4.313,4.313,0,0,1-1.835-2.312,6.176,6.176,0,0,0,.266-2.759A1.076,1.076,0,0,0,6.69,8.895,7.145,7.145,0,0,0,7.038,12.2,40.349,40.349,0,0,1,5.285,15.89s0,0-.009,0c-1.164.6-3.162,1.912-2.342,2.922a1.335,1.335,0,0,0,.924.43c.769,0,1.534-.773,2.625-2.655a24.492,24.492,0,0,1,3.395-1,6.512,6.512,0,0,0,2.75.838,1.112,1.112,0,0,0,.846-1.865C12.878,13.982,11.142,14.15,10.312,14.257ZM16.2,4.512,11.988.3a1.03,1.03,0,0,0-.73-.3H11V5.5h5.5V5.238A1.028,1.028,0,0,0,16.2,4.512Zm-3.184,10.97c.176-.116-.107-.511-1.839-.387C12.77,15.774,13.015,15.482,13.015,15.482Z" fill="#09ab9c"/></svg>