<svg height="76.17" viewBox="0 0 76.192 76.17" width="76.192" xmlns="http://www.w3.org/2000/svg"><g transform="translate(0)"><g transform="translate(0 0.314)"><g transform="translate(0 0)"><path d="M75.107,21.739h0l0,0-4.918-.7a1.264,1.264,0,0,1-.58-2.263l3.975-2.981a1.264,1.264,0,0,0,.253-1.77L69.283,7.952a1.264,1.264,0,0,0-1.77-.253l-3.974,2.981a1.264,1.264,0,0,1-2.015-1.19l.7-4.918a1.264,1.264,0,0,0-1.072-1.431h0l-7.5-1.072a1.264,1.264,0,0,0-1.431,1.072h0l-.7,4.918a1.264,1.264,0,0,1-2.263.58l-2.98-3.975a1.264,1.264,0,0,0-1.77-.253L40.7,7.263a24.461,24.461,0,0,0-5.171,0A24.021,24.021,0,0,0,14.352,28.8c-.034.358-.047.713-.064,1.068h-.379a1.264,1.264,0,0,0-1.236,1.011L11.8,35.037,8.3,32.623a1.264,1.264,0,0,0-1.612.147L2.894,36.563a1.264,1.264,0,0,0-.147,1.611l2.4,3.493L.994,42.54A1.264,1.264,0,0,0,0,43.778v5.057a1.264,1.264,0,0,0,1,1.238l4.156.874-2.4,3.493A1.264,1.264,0,0,0,2.9,56.05L6.7,59.843a1.264,1.264,0,0,0,1.612.147L11.8,57.581l.874,4.156a1.264,1.264,0,0,0,1.236,1.011h5.057a1.264,1.264,0,0,0,1.238-1l.874-4.156,3.493,2.4a1.264,1.264,0,0,0,1.611-.147l1.963-1.97v3.6a5.041,5.041,0,0,0,2.529,4.354v7.024a5.057,5.057,0,0,0,5.057,5.057H40.79a5.057,5.057,0,0,0,5.057-5.057V65.831a5.041,5.041,0,0,0,2.529-4.354v-5A6.2,6.2,0,0,1,51.3,51.313a24.262,24.262,0,0,0,2.976-2.276l-1.687-1.884a21.522,21.522,0,0,1-2.664,2.037,8.708,8.708,0,0,0-4.079,7.283v5a2.528,2.528,0,0,1-2.529,2.529H33.2a2.528,2.528,0,0,1-2.529-2.529V56.368a8.506,8.506,0,0,0-4.01-7.135A21.428,21.428,0,0,1,37.99,9.662a1.375,1.375,0,0,0-.049.138,1.264,1.264,0,0,0,.241.937l2.98,3.974a1.238,1.238,0,0,1,.076,1.4,1.257,1.257,0,0,1-1.264.608l-4.918-.7a1.264,1.264,0,0,0-1.431,1.072h0L32.551,24.6a1.264,1.264,0,0,0,1.072,1.431h0l4.918.7A1.264,1.264,0,0,1,39.123,29l-3.974,2.98a1.264,1.264,0,0,0-.253,1.77l4.551,6.068a1.264,1.264,0,0,0,1.77.253l3.975-2.98a1.264,1.264,0,0,1,2.009,1.19L46.5,43.2a1.264,1.264,0,0,0,1.072,1.431h0l7.51,1.073a1.4,1.4,0,0,0,.178.011,1.264,1.264,0,0,0,1.253-1.085l.7-4.918a1.264,1.264,0,0,1,2.263-.58L62.458,43.1a1.264,1.264,0,0,0,1.77.253L70.3,38.8a1.264,1.264,0,0,0,.253-1.77l-2.98-3.974a1.243,1.243,0,0,1-.076-1.4,1.228,1.228,0,0,1,1.264-.607l4.918.7a1.264,1.264,0,0,0,1.431-1.072h0l1.072-7.51A1.264,1.264,0,0,0,75.107,21.739Zm-41.9,44.8H43.319v2.529H33.2Zm0,5.057H43.319v1.264a2.528,2.528,0,0,1-2.529,2.529H35.733A2.528,2.528,0,0,1,33.2,72.856ZM23.14,49.789A23.893,23.893,0,0,0,25.3,51.363,6.171,6.171,0,0,1,27.848,54.6l-2.712,2.707-2.626-1.81A2.528,2.528,0,0,0,18.6,57.056l-.662,3.157H14.933l-.662-3.152A2.529,2.529,0,0,0,10.362,55.5L7.735,57.305l-2.3-2.3L7.24,52.382a2.529,2.529,0,0,0-1.56-3.91l-3.152-.664v-3l3.152-.664a2.529,2.529,0,0,0,1.561-3.9l-1.81-2.632,2.3-2.3,2.628,1.81a2.529,2.529,0,0,0,3.908-1.563l.221-1.052a24.076,24.076,0,0,0,1,4.287,7.586,7.586,0,1,0,7.645,11Zm-1.963-1.781a5.05,5.05,0,1,1-4.741-6.759h.048A23.944,23.944,0,0,0,21.176,48.008Zm51.6-18.941-3.666-.523a3.793,3.793,0,0,0-3.57,6.031l2.221,2.962L63.715,40.57l-2.223-2.961A3.793,3.793,0,0,0,54.7,39.348l-.512,3.671L49.186,42.3l.523-3.666a3.793,3.793,0,0,0-6.031-3.572l-2.962,2.221-3.034-4.046,2.961-2.223a3.793,3.793,0,0,0-1.738-6.789l-3.666-.523.716-5.005,3.666.523a3.793,3.793,0,0,0,3.572-6.031l-2.229-2.965L45.009,7.2l2.223,2.962a3.793,3.793,0,0,0,6.789-1.738l.523-3.666,5.005.714-.523,3.666a3.793,3.793,0,0,0,6.031,3.57l2.962-2.221,3.034,4.046L68.091,16.75a3.793,3.793,0,0,0,1.738,6.789l3.666.523Z" fill="#ef7124" transform="translate(0 -2.057)"/></g></g><g transform="translate(44.249 12.027)"><path d="M290.114,76.171a10.114,10.114,0,1,0,10.114,10.114A10.114,10.114,0,0,0,290.114,76.171Zm0,17.7a7.586,7.586,0,1,1,7.586-7.586A7.585,7.585,0,0,1,290.114,93.871Z" fill="#ef7124" transform="translate(-280 -76.171)"/></g><g transform="translate(36.997 55.942)"><rect fill="#ef7124" height="3.793" width="2.529"/></g><g transform="translate(20.551 14.416)"><path d="M142.225,120.4a15.171,15.171,0,0,1-2.561-26.97l-1.352-2.139a17.7,17.7,0,0,0,3,31.462,8.071,8.071,0,0,1,5.183,7.535h2.529A10.578,10.578,0,0,0,142.225,120.4Z" fill="#ef7124" transform="translate(-130.044 -91.291)"/></g><g transform="translate(62.282 47.092)"><rect fill="#ef7124" height="2.529" width="8.85"/></g><g transform="translate(60.209 53.706)"><g transform="translate(0 0)"><rect fill="#ef7124" height="9.874" transform="matrix(0.64, -0.768, 0.768, 0.64, 0, 1.943)" width="2.529"/></g></g><g transform="translate(54.697 57.207)"><rect fill="#ef7124" height="8.85" width="2.529"/></g><g transform="translate(1.291 19.316)"><g transform="translate(0 0)"><rect fill="#ef7124" height="2.527" transform="translate(0 2.528) rotate(-14.035)" width="10.425"/></g></g><g transform="translate(3.391 6.873)"><g transform="translate(0 0)"><rect fill="#ef7124" height="10.875" transform="matrix(0.581, -0.814, 0.814, 0.581, 0, 2.056)" width="2.527"/></g></g><g transform="translate(14.223 0)"><g transform="translate(0 0)"><rect fill="#ef7124" height="10.439" transform="matrix(0.969, -0.248, 0.248, 0.969, 0, 0.626)" width="2.529"/></g></g></g></svg>