<svg xmlns="http://www.w3.org/2000/svg" width="15.85" height="15.85" viewBox="0 0 15.85 15.85"><path d="M8.487.563a7.925,7.925,0,1,0,7.925,7.925A7.926,7.926,0,0,0,8.487.563Zm0,3.515A1.342,1.342,0,1,1,7.145,5.42,1.342,1.342,0,0,1,8.487,4.078Zm1.789,8.117a.383.383,0,0,1-.383.383H7.081a.383.383,0,0,1-.383-.383v-.767a.383.383,0,0,1,.383-.383h.383V9H7.081A.383.383,0,0,1,6.7,8.615V7.848a.383.383,0,0,1,.383-.383H9.126a.383.383,0,0,1,.383.383v3.2h.383a.383.383,0,0,1,.383.383Z" transform="translate(-0.563 -0.563)" fill="#09ab9c"/></svg>