<svg xmlns="http://www.w3.org/2000/svg" width="19.75" height="26.333" viewBox="0 0 19.75 26.333"><path d="M9.356,13.172a4.962,4.962,0,0,1-.1-2.412C9.685,10.76,9.644,12.657,9.356,13.172ZM9.268,15.6a23.732,23.732,0,0,1-1.461,3.225A18.939,18.939,0,0,1,11.043,17.7,6.662,6.662,0,0,1,9.268,15.6Zm-4.84,6.419c0,.041.679-.278,1.795-2.068A7.109,7.109,0,0,0,4.428,22.018ZM12.755,8.229H19.75V25.1a1.231,1.231,0,0,1-1.234,1.234H1.234A1.231,1.231,0,0,1,0,25.1V1.234A1.231,1.231,0,0,1,1.234,0H11.521V6.995A1.238,1.238,0,0,0,12.755,8.229Zm-.411,8.836a5.162,5.162,0,0,1-2.2-2.767,7.393,7.393,0,0,0,.319-3.3,1.288,1.288,0,0,0-2.458-.35,8.552,8.552,0,0,0,.417,3.96,48.3,48.3,0,0,1-2.1,4.413c-.005,0-.005.005-.01.005-1.394.715-3.785,2.289-2.8,3.5a1.6,1.6,0,0,0,1.106.514c.921,0,1.836-.926,3.143-3.179a29.317,29.317,0,0,1,4.063-1.193,7.8,7.8,0,0,0,3.292,1,1.331,1.331,0,0,0,1.013-2.232C15.414,16.736,13.336,16.937,12.344,17.065ZM19.39,5.4,14.35.36A1.233,1.233,0,0,0,13.475,0h-.309V6.583H19.75V6.27A1.23,1.23,0,0,0,19.39,5.4ZM15.579,18.531c.211-.139-.129-.612-2.2-.463C15.286,18.881,15.579,18.531,15.579,18.531Z" fill="#09ab9c"/></svg>