<svg xmlns="http://www.w3.org/2000/svg" width="19.655" height="17.275" viewBox="0 0 19.655 17.275"><g transform="translate(0)"><path d="M211,240h3.455v1.152H211Zm0,0" transform="translate(-202.9 -230.786)" fill="#09ab9c"/><path d="M15.946,84.8H12.707v.576a.576.576,0,0,1-.576.576H7.524a.576.576,0,0,1-.576-.576V84.8H3.709a1.726,1.726,0,0,1-1.639-1.181L0,77.41V89.986a1.73,1.73,0,0,0,1.728,1.728h16.2a1.73,1.73,0,0,0,1.728-1.728V77.411l-2.071,6.212A1.725,1.725,0,0,1,15.946,84.8Zm0,0" transform="translate(0 -74.439)" fill="#09ab9c"/><path d="M36.949,0H32.343a1.73,1.73,0,0,0-1.728,1.728V2.3H25.809L27.981,8.82a.576.576,0,0,0,.547.394h3.239V8.638a.576.576,0,0,1,.576-.576h4.607a.576.576,0,0,1,.576.576v.576h3.239a.576.576,0,0,0,.547-.394L43.483,2.3H38.677V1.728A1.73,1.73,0,0,0,36.949,0ZM31.767,2.3V1.728a.576.576,0,0,1,.576-.576h4.607a.576.576,0,0,1,.576.576V2.3Zm0,0" transform="translate(-24.818)" fill="#09ab9c"/></g></svg>