<svg xmlns="http://www.w3.org/2000/svg" width="18" height="19" viewBox="0 0 18 19"><g transform="translate(-309 -286.5)"><path d="M0,17.5a1.5,1.5,0,0,1-1.026-.406,1.5,1.5,0,0,1-.068-2.12l15-16a1.5,1.5,0,0,1,2.12-.068,1.5,1.5,0,0,1,.068,2.12l-15,16A1.5,1.5,0,0,1,0,17.5Z" transform="translate(310.5 288)" fill="#fff"/><path d="M15,17.5a1.5,1.5,0,0,1-1.095-.474l-15-16a1.5,1.5,0,0,1,.068-2.12,1.5,1.5,0,0,1,2.12.068l15,16A1.5,1.5,0,0,1,15,17.5Z" transform="translate(310.5 288)" fill="#fff"/></g></svg>