<svg xmlns="http://www.w3.org/2000/svg" width="18.875" height="18.875" viewBox="0 0 18.875 18.875">
  <path id="Icon_awesome-info-circle" data-name="Icon awesome-info-circle" d="M10,.563A9.438,9.438,0,1,0,19.438,10,9.439,9.439,0,0,0,10,.563Zm0,4.186a1.6,1.6,0,1,1-1.6,1.6A1.6,1.6,0,0,1,10,4.748Zm2.131,9.666a.457.457,0,0,1-.457.457H8.326a.457.457,0,0,1-.457-.457V13.5a.457.457,0,0,1,.457-.457h.457V10.609H8.326a.457.457,0,0,1-.457-.457V9.239a.457.457,0,0,1,.457-.457h2.435a.457.457,0,0,1,.457.457v3.805h.457a.457.457,0,0,1,.457.457Z" transform="translate(-0.563 -0.563)" fill="#09ab9c"/>
</svg>
