<svg id="svgexport-6" xmlns="http://www.w3.org/2000/svg" width="17.813" height="19.183" viewBox="0 0 17.813 19.183">
  <g id="Charity_Box" data-name="Charity Box">
    <path id="Path_118" data-name="Path 118" d="M23.933,20.111l-1.961-3.921A.343.343,0,0,0,21.666,16h-2.4v2.055h.343a.343.343,0,0,1,0,.685H10.7a.343.343,0,0,1,0-.685h.343V16h-2.4a.343.343,0,0,0-.306.189L6.382,20.111Z" transform="translate(-6.251 -11.889)" fill="#09ab9c"/>
    <path id="Path_119" data-name="Path 119" d="M26.842,37.891l-.484.484a.343.343,0,0,1-.484,0l-.484-.484a1.37,1.37,0,1,0-1.938,1.938l2.664,2.664,2.664-2.664a1.37,1.37,0,1,0-1.938-1.938Z" transform="translate(-17.21 -26.018)" fill="#fff"/>
    <path id="Path_120" data-name="Path 120" d="M6,30v9.934a.343.343,0,0,0,.343.343H23.47a.343.343,0,0,0,.343-.343V30Zm12.055,5.389L15.148,38.3a.343.343,0,0,1-.484,0l-2.907-2.907a2.055,2.055,0,0,1,2.907-2.907l.242.242.242-.242a2.055,2.055,0,0,1,2.907,2.907Z" transform="translate(-6 -21.094)" fill="#09ab9c"/>
    <path id="Path_121" data-name="Path 121" d="M30.114,10H28.627a1.033,1.033,0,0,1-.627.627v3.484h2.74V10.627A1.033,1.033,0,0,1,30.114,10Z" transform="translate(-20.464 -7.945)" fill="#09ab9c"/>
    <path id="Path_122" data-name="Path 122" d="M23.37,10.166V6.4a.343.343,0,0,1,.343-.343.343.343,0,0,0,.343-.343A.343.343,0,0,1,24.4,5.37h2.055a.343.343,0,0,1,.343.343.343.343,0,0,0,.343.343.343.343,0,0,1,.343.343v3.768h1.37V4.343A.343.343,0,0,0,28.508,4H22.343A.343.343,0,0,0,22,4.343v5.823Z" transform="translate(-16.519 -4)" fill="#09ab9c"/>
  </g>
</svg>
