<svg xmlns="http://www.w3.org/2000/svg" width="19.313" height="17.167" viewBox="0 0 19.313 17.167">
  <path id="Icon_awesome-map-marked-alt" data-name="Icon awesome-map-marked-alt" d="M9.656,0A4.225,4.225,0,0,0,5.432,4.225c0,1.886,2.761,5.324,3.819,6.572a.529.529,0,0,0,.811,0c1.058-1.248,3.819-4.686,3.819-6.572A4.225,4.225,0,0,0,9.656,0Zm0,5.633a1.408,1.408,0,1,1,1.408-1.408A1.408,1.408,0,0,1,9.656,5.633ZM.675,7.241a1.073,1.073,0,0,0-.675,1V16.63a.537.537,0,0,0,.736.5l4.629-2.107V7.206A10.154,10.154,0,0,1,4.652,5.65Zm8.982,4.819a1.6,1.6,0,0,1-1.224-.569c-.659-.778-1.36-1.664-1.995-2.572v6.1l6.438,2.146V8.919c-.634.908-1.335,1.794-1.995,2.572A1.6,1.6,0,0,1,9.656,12.059ZM18.577,5.4,13.948,7.51v9.656l4.69-1.876a1.073,1.073,0,0,0,.675-1V5.9A.537.537,0,0,0,18.577,5.4Z" fill="#09ab9c"/>
</svg>
