<svg xmlns="http://www.w3.org/2000/svg" width="17.844" height="11.896" viewBox="0 0 17.844 11.896">
  <path id="Icon_awesome-newspaper" data-name="Icon awesome-newspaper" d="M17.1,4.5H2.726a.743.743,0,0,0-.743.743v.248H.743A.743.743,0,0,0,0,6.235v8.426A1.735,1.735,0,0,0,1.735,16.4H16.357a1.487,1.487,0,0,0,1.487-1.487V5.243A.743.743,0,0,0,17.1,4.5ZM1.735,14.909a.248.248,0,0,1-.248-.248V6.978h.5v7.683A.248.248,0,0,1,1.735,14.909Zm7.311-.5H4.337a.372.372,0,0,1-.372-.372v-.248a.372.372,0,0,1,.372-.372H9.046a.372.372,0,0,1,.372.372v.248A.372.372,0,0,1,9.046,14.413Zm6.444,0H10.781a.372.372,0,0,1-.372-.372v-.248a.372.372,0,0,1,.372-.372h4.709a.372.372,0,0,1,.372.372v.248A.372.372,0,0,1,15.489,14.413ZM9.046,11.439H4.337a.372.372,0,0,1-.372-.372V10.82a.372.372,0,0,1,.372-.372H9.046a.372.372,0,0,1,.372.372v.248A.372.372,0,0,1,9.046,11.439Zm6.444,0H10.781a.372.372,0,0,1-.372-.372V10.82a.372.372,0,0,1,.372-.372h4.709a.372.372,0,0,1,.372.372v.248A.372.372,0,0,1,15.489,11.439Zm0-2.974H4.337a.372.372,0,0,1-.372-.372V6.854a.372.372,0,0,1,.372-.372H15.489a.372.372,0,0,1,.372.372V8.094A.372.372,0,0,1,15.489,8.465Z" transform="translate(0 -4.5)" fill="#09ab9c"/>
</svg>
