<svg xmlns="http://www.w3.org/2000/svg" width="23.014" height="24.784" viewBox="0 0 23.014 24.784">
  <g id="svgexport-6" transform="translate(-6 -4)">
    <g id="Charity_Box" data-name="Charity Box" transform="translate(6 4)">
      <path id="Path_118" data-name="Path 118" d="M29.058,21.311l-2.533-5.066a.443.443,0,0,0-.4-.245h-3.1v2.655h.443a.443.443,0,1,1,0,.885H11.966a.443.443,0,1,1,0-.885h.443V16h-3.1a.443.443,0,0,0-.4.245L6.382,21.311Z" transform="translate(-6.213 -10.689)" fill="#09ab9c"/>
      <path id="Path_119" data-name="Path 119" d="M27.95,38.008l-.626.626a.443.443,0,0,1-.626,0l-.626-.626a1.77,1.77,0,1,0-2.5,2.5l3.442,3.442,3.442-3.442a1.77,1.77,0,1,0-2.5-2.5Z" transform="translate(-15.504 -22.668)" fill="#ec7123"/>
      <path id="Path_120" data-name="Path 120" d="M6,30V42.835a.443.443,0,0,0,.443.443H28.571a.443.443,0,0,0,.443-.443V30Zm15.575,6.963L17.82,40.718a.443.443,0,0,1-.626,0l-3.755-3.755a2.655,2.655,0,1,1,3.755-3.755l.313.313.313-.313a2.655,2.655,0,1,1,3.755,3.755Z" transform="translate(-6 -18.493)" fill="#09ab9c"/>
      <path id="Path_121" data-name="Path 121" d="M30.731,10H28.81a1.334,1.334,0,0,1-.81.81v4.5h3.541v-4.5a1.334,1.334,0,0,1-.81-.81Z" transform="translate(-18.263 -7.345)" fill="#ec7123"/>
      <path id="Path_122" data-name="Path 122" d="M23.77,11.966V7.1a.443.443,0,0,1,.443-.443.443.443,0,0,0,.443-.443A.443.443,0,0,1,25.1,5.77h2.655a.443.443,0,0,1,.443.443.443.443,0,0,0,.443.443.443.443,0,0,1,.443.443v4.868h1.77V4.443A.443.443,0,0,0,30.409,4H22.443A.443.443,0,0,0,22,4.443v7.524Z" transform="translate(-14.919 -4)" fill="#ec7123"/>
    </g>
  </g>
</svg>
